<svg id="visual" viewBox="0 0 950 300" width="960" height="300" xmlns="http://www.w3.org/2000/svg" xmlns:xlink="http://www.w3.org/1999/xlink" version="1.1"><rect x="0" y="0" width="960" height="300" fill="#FFB699"></rect><path d="M0 59L16 67C32 75 64 91 96 92.5C128 94 160 81 192 76.8C224 72.7 256 77.3 288 84.7C320 92 352 102 384 99.8C416 97.7 448 83.3 480 69.8C512 56.3 544 43.7 576 46.3C608 49 640 67 672 79.7C704 92.3 736 99.7 768 105.5C800 111.3 832 115.7 864 108.7C896 101.7 928 83.3 944 74.2L960 65L960 301L944 301C928 301 896 301 864 301C832 301 800 301 768 301C736 301 704 301 672 301C640 301 608 301 576 301C544 301 512 301 480 301C448 301 416 301 384 301C352 301 320 301 288 301C256 301 224 301 192 301C160 301 128 301 96 301C64 301 32 301 16 301L0 301Z" fill="#ffb699"></path><path d="M0 100L16 108.8C32 117.7 64 135.3 96 138.7C128 142 160 131 192 126.5C224 122 256 124 288 120.7C320 117.3 352 108.7 384 107.2C416 105.7 448 111.3 480 119C512 126.7 544 136.3 576 130.8C608 125.3 640 104.7 672 98.8C704 93 736 102 768 112.7C800 123.3 832 135.7 864 137.2C896 138.7 928 129.3 944 124.7L960 120L960 301L944 301C928 301 896 301 864 301C832 301 800 301 768 301C736 301 704 301 672 301C640 301 608 301 576 301C544 301 512 301 480 301C448 301 416 301 384 301C352 301 320 301 288 301C256 301 224 301 192 301C160 301 128 301 96 301C64 301 32 301 16 301L0 301Z" fill="#ffc8b2"></path><path d="M0 166L16 171.3C32 176.7 64 187.3 96 181C128 174.7 160 151.3 192 151.7C224 152 256 176 288 182.5C320 189 352 178 384 174.3C416 170.7 448 174.3 480 171.7C512 169 544 160 576 152C608 144 640 137 672 141.8C704 146.7 736 163.3 768 173.8C800 184.3 832 188.7 864 180.8C896 173 928 153 944 143L960 133L960 301L944 301C928 301 896 301 864 301C832 301 800 301 768 301C736 301 704 301 672 301C640 301 608 301 576 301C544 301 512 301 480 301C448 301 416 301 384 301C352 301 320 301 288 301C256 301 224 301 192 301C160 301 128 301 96 301C64 301 32 301 16 301L0 301Z" fill="#ffdacb"></path><path d="M0 193L16 193C32 193 64 193 96 196.2C128 199.3 160 205.7 192 212C224 218.3 256 224.7 288 222.3C320 220 352 209 384 204.2C416 199.3 448 200.7 480 205.7C512 210.7 544 219.3 576 223.7C608 228 640 228 672 229C704 230 736 232 768 229.5C800 227 832 220 864 212C896 204 928 195 944 190.5L960 186L960 301L944 301C928 301 896 301 864 301C832 301 800 301 768 301C736 301 704 301 672 301C640 301 608 301 576 301C544 301 512 301 480 301C448 301 416 301 384 301C352 301 320 301 288 301C256 301 224 301 192 301C160 301 128 301 96 301C64 301 32 301 16 301L0 301Z" fill="#ffece5"></path><path d="M0 234L16 235.8C32 237.7 64 241.3 96 242.3C128 243.3 160 241.7 192 238.5C224 235.3 256 230.7 288 234.2C320 237.7 352 249.3 384 255.2C416 261 448 261 480 259.7C512 258.3 544 255.7 576 250C608 244.3 640 235.7 672 239.2C704 242.7 736 258.3 768 257.5C800 256.7 832 239.3 864 237.8C896 236.3 928 250.7 944 257.8L960 265L960 301L944 301C928 301 896 301 864 301C832 301 800 301 768 301C736 301 704 301 672 301C640 301 608 301 576 301C544 301 512 301 480 301C448 301 416 301 384 301C352 301 320 301 288 301C256 301 224 301 192 301C160 301 128 301 96 301C64 301 32 301 16 301L0 301Z" fill="#ffffff"></path></svg>