<svg id="visual" viewBox="0 0 950 300" width="960" height="300" xmlns="http://www.w3.org/2000/svg" xmlns:xlink="http://www.w3.org/1999/xlink" version="1.1"><rect x="0" y="0" width="960" height="300" fill="#ffffff"></rect><path d="M0 110L22.8 104.5C45.7 99 91.3 88 137 87C182.7 86 228.3 95 274 96.2C319.7 97.3 365.3 90.7 411.2 88.2C457 85.7 503 87.3 548.8 91.7C594.7 96 640.3 103 686 102C731.7 101 777.3 92 823 90.5C868.7 89 914.3 95 937.2 98L960 101L960 0L937.2 0C914.3 0 868.7 0 823 0C777.3 0 731.7 0 686 0C640.3 0 594.7 0 548.8 0C503 0 457 0 411.2 0C365.3 0 319.7 0 274 0C228.3 0 182.7 0 137 0C91.3 0 45.7 0 22.8 0L0 0Z" fill="#ffffff"></path><path d="M0 73L22.8 70.8C45.7 68.7 91.3 64.3 137 62.5C182.7 60.7 228.3 61.3 274 66.8C319.7 72.3 365.3 82.7 411.2 89.2C457 95.7 503 98.3 548.8 97.5C594.7 96.7 640.3 92.3 686 85.7C731.7 79 777.3 70 823 72C868.7 74 914.3 87 937.2 93.5L960 100L960 0L937.2 0C914.3 0 868.7 0 823 0C777.3 0 731.7 0 686 0C640.3 0 594.7 0 548.8 0C503 0 457 0 411.2 0C365.3 0 319.7 0 274 0C228.3 0 182.7 0 137 0C91.3 0 45.7 0 22.8 0L0 0Z" fill="#ffece5"></path><path d="M0 76L22.8 75.3C45.7 74.7 91.3 73.3 137 70.7C182.7 68 228.3 64 274 62C319.7 60 365.3 60 411.2 59.2C457 58.3 503 56.7 548.8 59.5C594.7 62.3 640.3 69.7 686 68C731.7 66.3 777.3 55.7 823 52.8C868.7 50 914.3 55 937.2 57.5L960 60L960 0L937.2 0C914.3 0 868.7 0 823 0C777.3 0 731.7 0 686 0C640.3 0 594.7 0 548.8 0C503 0 457 0 411.2 0C365.3 0 319.7 0 274 0C228.3 0 182.7 0 137 0C91.3 0 45.7 0 22.8 0L0 0Z" fill="#ffdacb"></path><path d="M0 31L22.8 31.5C45.7 32 91.3 33 137 36C182.7 39 228.3 44 274 44.3C319.7 44.7 365.3 40.3 411.2 40.2C457 40 503 44 548.8 47.2C594.7 50.3 640.3 52.7 686 53.5C731.7 54.3 777.3 53.7 823 50.7C868.7 47.7 914.3 42.3 937.2 39.7L960 37L960 0L937.2 0C914.3 0 868.7 0 823 0C777.3 0 731.7 0 686 0C640.3 0 594.7 0 548.8 0C503 0 457 0 411.2 0C365.3 0 319.7 0 274 0C228.3 0 182.7 0 137 0C91.3 0 45.7 0 22.8 0L0 0Z" fill="#ffc8b2"></path><path d="M0 16L22.8 18.7C45.7 21.3 91.3 26.7 137 29.8C182.7 33 228.3 34 274 34.2C319.7 34.3 365.3 33.7 411.2 29.8C457 26 503 19 548.8 15.8C594.7 12.7 640.3 13.3 686 15.5C731.7 17.7 777.3 21.3 823 23.3C868.7 25.3 914.3 25.7 937.2 25.8L960 26L960 0L937.2 0C914.3 0 868.7 0 823 0C777.3 0 731.7 0 686 0C640.3 0 594.7 0 548.8 0C503 0 457 0 411.2 0C365.3 0 319.7 0 274 0C228.3 0 182.7 0 137 0C91.3 0 45.7 0 22.8 0L0 0Z" fill="#ffb699"></path></svg>