<svg id="visual" viewBox="0 0 900 300" width="900" height="300" xmlns="http://www.w3.org/2000/svg" xmlns:xlink="http://www.w3.org/1999/xlink" version="1.1"><rect x="0" y="0" width="900" height="300" fill="#FFB699"></rect><g transform="translate(464.0516622949285 131.61112566742986)"><path d="M86.6 -99.6C105.5 -87.3 109.4 -53.7 119.5 -17.9C129.6 17.9 146 55.8 136.5 85C127.1 114.2 91.7 134.6 55.8 143.4C19.8 152.2 -16.8 149.4 -52.6 138.8C-88.4 128.2 -123.4 109.9 -144.4 80.2C-165.4 50.5 -172.3 9.4 -164.1 -27.5C-155.9 -64.5 -132.6 -97.4 -102.7 -107.7C-72.8 -118.1 -36.4 -105.9 -1.3 -104.4C33.9 -102.9 67.7 -111.9 86.6 -99.6" fill="#ffffff"></path></g></svg>