<svg id="visual" viewBox="0 0 900 300" width="900" height="300" xmlns="http://www.w3.org/2000/svg" xmlns:xlink="http://www.w3.org/1999/xlink" version="1.1"><rect x="0" y="0" width="900" height="300" fill="#FFB699"></rect><g transform="translate(426.1134116033835 138.120562290721)"><path d="M106.6 -112C137.4 -101.2 161 -66.9 162.4 -32.6C163.8 1.8 143 36.1 122.6 70.1C102.2 104 82.2 137.5 56.5 140.5C30.8 143.4 -0.6 115.7 -29.2 97.7C-57.8 79.7 -83.4 71.4 -97.3 53.3C-111.2 35.2 -113.2 7.5 -114.3 -26C-115.4 -59.5 -115.5 -98.7 -96.3 -111.5C-77.1 -124.3 -38.6 -110.6 -0.3 -110.2C37.9 -109.9 75.8 -122.7 106.6 -112" fill="#ffffff"></path></g></svg>