<svg id="visual" viewBox="0 0 950 300" width="960" height="300" xmlns="http://www.w3.org/2000/svg" xmlns:xlink="http://www.w3.org/1999/xlink" version="1.1"><rect x="0" y="0" width="960" height="300" fill="#FFB699"></rect><path d="M0 93L16 97.2C32 101.3 64 109.7 96 100.2C128 90.7 160 63.3 192 60.8C224 58.3 256 80.7 288 83.8C320 87 352 71 384 71.2C416 71.3 448 87.7 480 86.7C512 85.7 544 67.3 576 56.7C608 46 640 43 672 50C704 57 736 74 768 79.8C800 85.7 832 80.3 864 79.8C896 79.3 928 83.7 944 85.8L960 88L960 301L944 301C928 301 896 301 864 301C832 301 800 301 768 301C736 301 704 301 672 301C640 301 608 301 576 301C544 301 512 301 480 301C448 301 416 301 384 301C352 301 320 301 288 301C256 301 224 301 192 301C160 301 128 301 96 301C64 301 32 301 16 301L0 301Z" fill="#ffb699"></path><path d="M0 163L16 151.8C32 140.7 64 118.3 96 112.8C128 107.3 160 118.7 192 121C224 123.3 256 116.7 288 115C320 113.3 352 116.7 384 117.7C416 118.7 448 117.3 480 122C512 126.7 544 137.3 576 141.7C608 146 640 144 672 134.3C704 124.7 736 107.3 768 105.7C800 104 832 118 864 128.3C896 138.7 928 145.3 944 148.7L960 152L960 301L944 301C928 301 896 301 864 301C832 301 800 301 768 301C736 301 704 301 672 301C640 301 608 301 576 301C544 301 512 301 480 301C448 301 416 301 384 301C352 301 320 301 288 301C256 301 224 301 192 301C160 301 128 301 96 301C64 301 32 301 16 301L0 301Z" fill="#ffc4a8"></path><path d="M0 150L16 152.7C32 155.3 64 160.7 96 162.7C128 164.7 160 163.3 192 156.8C224 150.3 256 138.7 288 136.3C320 134 352 141 384 147.5C416 154 448 160 480 162.2C512 164.3 544 162.7 576 165.8C608 169 640 177 672 181.2C704 185.3 736 185.7 768 184C800 182.3 832 178.7 864 168.8C896 159 928 143 944 135L960 127L960 301L944 301C928 301 896 301 864 301C832 301 800 301 768 301C736 301 704 301 672 301C640 301 608 301 576 301C544 301 512 301 480 301C448 301 416 301 384 301C352 301 320 301 288 301C256 301 224 301 192 301C160 301 128 301 96 301C64 301 32 301 16 301L0 301Z" fill="#fed1b9"></path><path d="M0 194L16 192.3C32 190.7 64 187.3 96 184C128 180.7 160 177.3 192 184.5C224 191.7 256 209.3 288 211.2C320 213 352 199 384 200.7C416 202.3 448 219.7 480 220.7C512 221.7 544 206.3 576 196.8C608 187.3 640 183.7 672 188.3C704 193 736 206 768 207.7C800 209.3 832 199.7 864 203C896 206.3 928 222.7 944 230.8L960 239L960 301L944 301C928 301 896 301 864 301C832 301 800 301 768 301C736 301 704 301 672 301C640 301 608 301 576 301C544 301 512 301 480 301C448 301 416 301 384 301C352 301 320 301 288 301C256 301 224 301 192 301C160 301 128 301 96 301C64 301 32 301 16 301L0 301Z" fill="#fddecb"></path><path d="M0 273L16 269C32 265 64 257 96 253.7C128 250.3 160 251.7 192 248.8C224 246 256 239 288 241.2C320 243.3 352 254.7 384 255.2C416 255.7 448 245.3 480 240.7C512 236 544 237 576 241.3C608 245.7 640 253.3 672 251.8C704 250.3 736 239.7 768 232.7C800 225.7 832 222.3 864 224.7C896 227 928 235 944 239L960 243L960 301L944 301C928 301 896 301 864 301C832 301 800 301 768 301C736 301 704 301 672 301C640 301 608 301 576 301C544 301 512 301 480 301C448 301 416 301 384 301C352 301 320 301 288 301C256 301 224 301 192 301C160 301 128 301 96 301C64 301 32 301 16 301L0 301Z" fill="#fceade"></path></svg>