<svg id="visual" viewBox="0 0 950 300" width="960" height="300" xmlns="http://www.w3.org/2000/svg" xmlns:xlink="http://www.w3.org/1999/xlink" version="1.1"><rect x="0" y="0" width="960" height="300" fill="#FFB699"></rect><path d="M0 204L16 203.7C32 203.3 64 202.7 96 206.3C128 210 160 218 192 217.2C224 216.3 256 206.7 288 204C320 201.3 352 205.7 384 213.5C416 221.3 448 232.7 480 233.5C512 234.3 544 224.7 576 217.7C608 210.7 640 206.3 672 208.7C704 211 736 220 768 227.2C800 234.3 832 239.7 864 240.5C896 241.3 928 237.7 944 235.8L960 234L960 0L944 0C928 0 896 0 864 0C832 0 800 0 768 0C736 0 704 0 672 0C640 0 608 0 576 0C544 0 512 0 480 0C448 0 416 0 384 0C352 0 320 0 288 0C256 0 224 0 192 0C160 0 128 0 96 0C64 0 32 0 16 0L0 0Z" fill="#ffb699"></path><path d="M0 173L16 169.3C32 165.7 64 158.3 96 160.3C128 162.3 160 173.7 192 172.7C224 171.7 256 158.3 288 155.8C320 153.3 352 161.7 384 166.7C416 171.7 448 173.3 480 179.2C512 185 544 195 576 197.3C608 199.7 640 194.3 672 186.5C704 178.7 736 168.3 768 168.3C800 168.3 832 178.7 864 175C896 171.3 928 153.7 944 144.8L960 136L960 0L944 0C928 0 896 0 864 0C832 0 800 0 768 0C736 0 704 0 672 0C640 0 608 0 576 0C544 0 512 0 480 0C448 0 416 0 384 0C352 0 320 0 288 0C256 0 224 0 192 0C160 0 128 0 96 0C64 0 32 0 16 0L0 0Z" fill="#ffc8b2"></path><path d="M0 119L16 116.3C32 113.7 64 108.3 96 108.8C128 109.3 160 115.7 192 120.7C224 125.7 256 129.3 288 131.8C320 134.3 352 135.7 384 139.3C416 143 448 149 480 146.2C512 143.3 544 131.7 576 128.3C608 125 640 130 672 132.7C704 135.3 736 135.7 768 141.8C800 148 832 160 864 163.3C896 166.7 928 161.3 944 158.7L960 156L960 0L944 0C928 0 896 0 864 0C832 0 800 0 768 0C736 0 704 0 672 0C640 0 608 0 576 0C544 0 512 0 480 0C448 0 416 0 384 0C352 0 320 0 288 0C256 0 224 0 192 0C160 0 128 0 96 0C64 0 32 0 16 0L0 0Z" fill="#ffdacb"></path><path d="M0 103L16 105.8C32 108.7 64 114.3 96 116C128 117.7 160 115.3 192 105.5C224 95.7 256 78.3 288 77.3C320 76.3 352 91.7 384 102.2C416 112.7 448 118.3 480 113C512 107.7 544 91.3 576 84.8C608 78.3 640 81.7 672 84.8C704 88 736 91 768 86.8C800 82.7 832 71.3 864 71.2C896 71 928 82 944 87.5L960 93L960 0L944 0C928 0 896 0 864 0C832 0 800 0 768 0C736 0 704 0 672 0C640 0 608 0 576 0C544 0 512 0 480 0C448 0 416 0 384 0C352 0 320 0 288 0C256 0 224 0 192 0C160 0 128 0 96 0C64 0 32 0 16 0L0 0Z" fill="#ffece5"></path><path d="M0 39L16 42.3C32 45.7 64 52.3 96 58.2C128 64 160 69 192 66.8C224 64.7 256 55.3 288 55.3C320 55.3 352 64.7 384 64.7C416 64.7 448 55.3 480 53.7C512 52 544 58 576 57.5C608 57 640 50 672 49.7C704 49.3 736 55.7 768 54.3C800 53 832 44 864 46C896 48 928 61 944 67.5L960 74L960 0L944 0C928 0 896 0 864 0C832 0 800 0 768 0C736 0 704 0 672 0C640 0 608 0 576 0C544 0 512 0 480 0C448 0 416 0 384 0C352 0 320 0 288 0C256 0 224 0 192 0C160 0 128 0 96 0C64 0 32 0 16 0L0 0Z" fill="#ffffff"></path></svg>